<?xml version="1.0" encoding="utf-8"?>
<svg xmlns="http://www.w3.org/2000/svg" width="212" height="212" viewBox="0 0 212 212" shape-rendering="crispEdges">
  <title>https://www.astria.ai/p/oma?utm_source=presentation&amp;utm_medium=qr&amp;utm_campaign=women_ai_oma&amp;utm_content=slide_13_closing</title>
  <rect width="100%" height="100%" fill="#fff"/>
  <g fill="#000">
    <rect x="16" y="16" width="4" height="4"/>
    <rect x="20" y="16" width="4" height="4"/>
    <rect x="24" y="16" width="4" height="4"/>
    <rect x="28" y="16" width="4" height="4"/>
    <rect x="32" y="16" width="4" height="4"/>
    <rect x="36" y="16" width="4" height="4"/>
    <rect x="40" y="16" width="4" height="4"/>
    <rect x="48" y="16" width="4" height="4"/>
    <rect x="60" y="16" width="4" height="4"/>
    <rect x="64" y="16" width="4" height="4"/>
    <rect x="72" y="16" width="4" height="4"/>
    <rect x="88" y="16" width="4" height="4"/>
    <rect x="100" y="16" width="4" height="4"/>
    <rect x="104" y="16" width="4" height="4"/>
    <rect x="120" y="16" width="4" height="4"/>
    <rect x="132" y="16" width="4" height="4"/>
    <rect x="136" y="16" width="4" height="4"/>
    <rect x="144" y="16" width="4" height="4"/>
    <rect x="148" y="16" width="4" height="4"/>
    <rect x="160" y="16" width="4" height="4"/>
    <rect x="168" y="16" width="4" height="4"/>
    <rect x="172" y="16" width="4" height="4"/>
    <rect x="176" y="16" width="4" height="4"/>
    <rect x="180" y="16" width="4" height="4"/>
    <rect x="184" y="16" width="4" height="4"/>
    <rect x="188" y="16" width="4" height="4"/>
    <rect x="192" y="16" width="4" height="4"/>
    <rect x="16" y="20" width="4" height="4"/>
    <rect x="40" y="20" width="4" height="4"/>
    <rect x="48" y="20" width="4" height="4"/>
    <rect x="60" y="20" width="4" height="4"/>
    <rect x="76" y="20" width="4" height="4"/>
    <rect x="84" y="20" width="4" height="4"/>
    <rect x="88" y="20" width="4" height="4"/>
    <rect x="92" y="20" width="4" height="4"/>
    <rect x="104" y="20" width="4" height="4"/>
    <rect x="108" y="20" width="4" height="4"/>
    <rect x="112" y="20" width="4" height="4"/>
    <rect x="132" y="20" width="4" height="4"/>
    <rect x="144" y="20" width="4" height="4"/>
    <rect x="148" y="20" width="4" height="4"/>
    <rect x="156" y="20" width="4" height="4"/>
    <rect x="168" y="20" width="4" height="4"/>
    <rect x="192" y="20" width="4" height="4"/>
    <rect x="16" y="24" width="4" height="4"/>
    <rect x="24" y="24" width="4" height="4"/>
    <rect x="28" y="24" width="4" height="4"/>
    <rect x="32" y="24" width="4" height="4"/>
    <rect x="40" y="24" width="4" height="4"/>
    <rect x="52" y="24" width="4" height="4"/>
    <rect x="68" y="24" width="4" height="4"/>
    <rect x="76" y="24" width="4" height="4"/>
    <rect x="80" y="24" width="4" height="4"/>
    <rect x="92" y="24" width="4" height="4"/>
    <rect x="96" y="24" width="4" height="4"/>
    <rect x="120" y="24" width="4" height="4"/>
    <rect x="124" y="24" width="4" height="4"/>
    <rect x="132" y="24" width="4" height="4"/>
    <rect x="136" y="24" width="4" height="4"/>
    <rect x="144" y="24" width="4" height="4"/>
    <rect x="148" y="24" width="4" height="4"/>
    <rect x="156" y="24" width="4" height="4"/>
    <rect x="168" y="24" width="4" height="4"/>
    <rect x="176" y="24" width="4" height="4"/>
    <rect x="180" y="24" width="4" height="4"/>
    <rect x="184" y="24" width="4" height="4"/>
    <rect x="192" y="24" width="4" height="4"/>
    <rect x="16" y="28" width="4" height="4"/>
    <rect x="24" y="28" width="4" height="4"/>
    <rect x="28" y="28" width="4" height="4"/>
    <rect x="32" y="28" width="4" height="4"/>
    <rect x="40" y="28" width="4" height="4"/>
    <rect x="56" y="28" width="4" height="4"/>
    <rect x="60" y="28" width="4" height="4"/>
    <rect x="68" y="28" width="4" height="4"/>
    <rect x="76" y="28" width="4" height="4"/>
    <rect x="96" y="28" width="4" height="4"/>
    <rect x="100" y="28" width="4" height="4"/>
    <rect x="104" y="28" width="4" height="4"/>
    <rect x="108" y="28" width="4" height="4"/>
    <rect x="112" y="28" width="4" height="4"/>
    <rect x="116" y="28" width="4" height="4"/>
    <rect x="128" y="28" width="4" height="4"/>
    <rect x="140" y="28" width="4" height="4"/>
    <rect x="156" y="28" width="4" height="4"/>
    <rect x="160" y="28" width="4" height="4"/>
    <rect x="168" y="28" width="4" height="4"/>
    <rect x="176" y="28" width="4" height="4"/>
    <rect x="180" y="28" width="4" height="4"/>
    <rect x="184" y="28" width="4" height="4"/>
    <rect x="192" y="28" width="4" height="4"/>
    <rect x="16" y="32" width="4" height="4"/>
    <rect x="24" y="32" width="4" height="4"/>
    <rect x="28" y="32" width="4" height="4"/>
    <rect x="32" y="32" width="4" height="4"/>
    <rect x="40" y="32" width="4" height="4"/>
    <rect x="48" y="32" width="4" height="4"/>
    <rect x="52" y="32" width="4" height="4"/>
    <rect x="60" y="32" width="4" height="4"/>
    <rect x="72" y="32" width="4" height="4"/>
    <rect x="76" y="32" width="4" height="4"/>
    <rect x="96" y="32" width="4" height="4"/>
    <rect x="100" y="32" width="4" height="4"/>
    <rect x="104" y="32" width="4" height="4"/>
    <rect x="108" y="32" width="4" height="4"/>
    <rect x="112" y="32" width="4" height="4"/>
    <rect x="120" y="32" width="4" height="4"/>
    <rect x="124" y="32" width="4" height="4"/>
    <rect x="128" y="32" width="4" height="4"/>
    <rect x="132" y="32" width="4" height="4"/>
    <rect x="136" y="32" width="4" height="4"/>
    <rect x="140" y="32" width="4" height="4"/>
    <rect x="144" y="32" width="4" height="4"/>
    <rect x="148" y="32" width="4" height="4"/>
    <rect x="152" y="32" width="4" height="4"/>
    <rect x="156" y="32" width="4" height="4"/>
    <rect x="160" y="32" width="4" height="4"/>
    <rect x="168" y="32" width="4" height="4"/>
    <rect x="176" y="32" width="4" height="4"/>
    <rect x="180" y="32" width="4" height="4"/>
    <rect x="184" y="32" width="4" height="4"/>
    <rect x="192" y="32" width="4" height="4"/>
    <rect x="16" y="36" width="4" height="4"/>
    <rect x="40" y="36" width="4" height="4"/>
    <rect x="48" y="36" width="4" height="4"/>
    <rect x="64" y="36" width="4" height="4"/>
    <rect x="88" y="36" width="4" height="4"/>
    <rect x="92" y="36" width="4" height="4"/>
    <rect x="96" y="36" width="4" height="4"/>
    <rect x="112" y="36" width="4" height="4"/>
    <rect x="116" y="36" width="4" height="4"/>
    <rect x="168" y="36" width="4" height="4"/>
    <rect x="192" y="36" width="4" height="4"/>
    <rect x="16" y="40" width="4" height="4"/>
    <rect x="20" y="40" width="4" height="4"/>
    <rect x="24" y="40" width="4" height="4"/>
    <rect x="28" y="40" width="4" height="4"/>
    <rect x="32" y="40" width="4" height="4"/>
    <rect x="36" y="40" width="4" height="4"/>
    <rect x="40" y="40" width="4" height="4"/>
    <rect x="48" y="40" width="4" height="4"/>
    <rect x="56" y="40" width="4" height="4"/>
    <rect x="64" y="40" width="4" height="4"/>
    <rect x="72" y="40" width="4" height="4"/>
    <rect x="80" y="40" width="4" height="4"/>
    <rect x="88" y="40" width="4" height="4"/>
    <rect x="96" y="40" width="4" height="4"/>
    <rect x="104" y="40" width="4" height="4"/>
    <rect x="112" y="40" width="4" height="4"/>
    <rect x="120" y="40" width="4" height="4"/>
    <rect x="128" y="40" width="4" height="4"/>
    <rect x="136" y="40" width="4" height="4"/>
    <rect x="144" y="40" width="4" height="4"/>
    <rect x="152" y="40" width="4" height="4"/>
    <rect x="160" y="40" width="4" height="4"/>
    <rect x="168" y="40" width="4" height="4"/>
    <rect x="172" y="40" width="4" height="4"/>
    <rect x="176" y="40" width="4" height="4"/>
    <rect x="180" y="40" width="4" height="4"/>
    <rect x="184" y="40" width="4" height="4"/>
    <rect x="188" y="40" width="4" height="4"/>
    <rect x="192" y="40" width="4" height="4"/>
    <rect x="52" y="44" width="4" height="4"/>
    <rect x="56" y="44" width="4" height="4"/>
    <rect x="60" y="44" width="4" height="4"/>
    <rect x="72" y="44" width="4" height="4"/>
    <rect x="80" y="44" width="4" height="4"/>
    <rect x="92" y="44" width="4" height="4"/>
    <rect x="96" y="44" width="4" height="4"/>
    <rect x="112" y="44" width="4" height="4"/>
    <rect x="140" y="44" width="4" height="4"/>
    <rect x="144" y="44" width="4" height="4"/>
    <rect x="160" y="44" width="4" height="4"/>
    <rect x="16" y="48" width="4" height="4"/>
    <rect x="20" y="48" width="4" height="4"/>
    <rect x="24" y="48" width="4" height="4"/>
    <rect x="28" y="48" width="4" height="4"/>
    <rect x="36" y="48" width="4" height="4"/>
    <rect x="40" y="48" width="4" height="4"/>
    <rect x="52" y="48" width="4" height="4"/>
    <rect x="56" y="48" width="4" height="4"/>
    <rect x="64" y="48" width="4" height="4"/>
    <rect x="88" y="48" width="4" height="4"/>
    <rect x="92" y="48" width="4" height="4"/>
    <rect x="96" y="48" width="4" height="4"/>
    <rect x="100" y="48" width="4" height="4"/>
    <rect x="104" y="48" width="4" height="4"/>
    <rect x="108" y="48" width="4" height="4"/>
    <rect x="112" y="48" width="4" height="4"/>
    <rect x="116" y="48" width="4" height="4"/>
    <rect x="124" y="48" width="4" height="4"/>
    <rect x="136" y="48" width="4" height="4"/>
    <rect x="144" y="48" width="4" height="4"/>
    <rect x="152" y="48" width="4" height="4"/>
    <rect x="168" y="48" width="4" height="4"/>
    <rect x="172" y="48" width="4" height="4"/>
    <rect x="184" y="48" width="4" height="4"/>
    <rect x="188" y="48" width="4" height="4"/>
    <rect x="20" y="52" width="4" height="4"/>
    <rect x="28" y="52" width="4" height="4"/>
    <rect x="32" y="52" width="4" height="4"/>
    <rect x="48" y="52" width="4" height="4"/>
    <rect x="52" y="52" width="4" height="4"/>
    <rect x="60" y="52" width="4" height="4"/>
    <rect x="68" y="52" width="4" height="4"/>
    <rect x="72" y="52" width="4" height="4"/>
    <rect x="76" y="52" width="4" height="4"/>
    <rect x="80" y="52" width="4" height="4"/>
    <rect x="84" y="52" width="4" height="4"/>
    <rect x="88" y="52" width="4" height="4"/>
    <rect x="100" y="52" width="4" height="4"/>
    <rect x="104" y="52" width="4" height="4"/>
    <rect x="108" y="52" width="4" height="4"/>
    <rect x="112" y="52" width="4" height="4"/>
    <rect x="120" y="52" width="4" height="4"/>
    <rect x="124" y="52" width="4" height="4"/>
    <rect x="132" y="52" width="4" height="4"/>
    <rect x="136" y="52" width="4" height="4"/>
    <rect x="148" y="52" width="4" height="4"/>
    <rect x="160" y="52" width="4" height="4"/>
    <rect x="164" y="52" width="4" height="4"/>
    <rect x="168" y="52" width="4" height="4"/>
    <rect x="172" y="52" width="4" height="4"/>
    <rect x="176" y="52" width="4" height="4"/>
    <rect x="180" y="52" width="4" height="4"/>
    <rect x="24" y="56" width="4" height="4"/>
    <rect x="28" y="56" width="4" height="4"/>
    <rect x="40" y="56" width="4" height="4"/>
    <rect x="48" y="56" width="4" height="4"/>
    <rect x="52" y="56" width="4" height="4"/>
    <rect x="56" y="56" width="4" height="4"/>
    <rect x="60" y="56" width="4" height="4"/>
    <rect x="68" y="56" width="4" height="4"/>
    <rect x="72" y="56" width="4" height="4"/>
    <rect x="76" y="56" width="4" height="4"/>
    <rect x="92" y="56" width="4" height="4"/>
    <rect x="108" y="56" width="4" height="4"/>
    <rect x="120" y="56" width="4" height="4"/>
    <rect x="132" y="56" width="4" height="4"/>
    <rect x="136" y="56" width="4" height="4"/>
    <rect x="140" y="56" width="4" height="4"/>
    <rect x="144" y="56" width="4" height="4"/>
    <rect x="148" y="56" width="4" height="4"/>
    <rect x="168" y="56" width="4" height="4"/>
    <rect x="176" y="56" width="4" height="4"/>
    <rect x="184" y="56" width="4" height="4"/>
    <rect x="188" y="56" width="4" height="4"/>
    <rect x="16" y="60" width="4" height="4"/>
    <rect x="20" y="60" width="4" height="4"/>
    <rect x="24" y="60" width="4" height="4"/>
    <rect x="36" y="60" width="4" height="4"/>
    <rect x="52" y="60" width="4" height="4"/>
    <rect x="56" y="60" width="4" height="4"/>
    <rect x="60" y="60" width="4" height="4"/>
    <rect x="68" y="60" width="4" height="4"/>
    <rect x="72" y="60" width="4" height="4"/>
    <rect x="84" y="60" width="4" height="4"/>
    <rect x="104" y="60" width="4" height="4"/>
    <rect x="116" y="60" width="4" height="4"/>
    <rect x="120" y="60" width="4" height="4"/>
    <rect x="144" y="60" width="4" height="4"/>
    <rect x="148" y="60" width="4" height="4"/>
    <rect x="152" y="60" width="4" height="4"/>
    <rect x="156" y="60" width="4" height="4"/>
    <rect x="164" y="60" width="4" height="4"/>
    <rect x="168" y="60" width="4" height="4"/>
    <rect x="172" y="60" width="4" height="4"/>
    <rect x="28" y="64" width="4" height="4"/>
    <rect x="32" y="64" width="4" height="4"/>
    <rect x="36" y="64" width="4" height="4"/>
    <rect x="40" y="64" width="4" height="4"/>
    <rect x="44" y="64" width="4" height="4"/>
    <rect x="52" y="64" width="4" height="4"/>
    <rect x="60" y="64" width="4" height="4"/>
    <rect x="64" y="64" width="4" height="4"/>
    <rect x="72" y="64" width="4" height="4"/>
    <rect x="76" y="64" width="4" height="4"/>
    <rect x="80" y="64" width="4" height="4"/>
    <rect x="84" y="64" width="4" height="4"/>
    <rect x="88" y="64" width="4" height="4"/>
    <rect x="96" y="64" width="4" height="4"/>
    <rect x="104" y="64" width="4" height="4"/>
    <rect x="112" y="64" width="4" height="4"/>
    <rect x="116" y="64" width="4" height="4"/>
    <rect x="124" y="64" width="4" height="4"/>
    <rect x="136" y="64" width="4" height="4"/>
    <rect x="144" y="64" width="4" height="4"/>
    <rect x="148" y="64" width="4" height="4"/>
    <rect x="152" y="64" width="4" height="4"/>
    <rect x="156" y="64" width="4" height="4"/>
    <rect x="160" y="64" width="4" height="4"/>
    <rect x="172" y="64" width="4" height="4"/>
    <rect x="192" y="64" width="4" height="4"/>
    <rect x="20" y="68" width="4" height="4"/>
    <rect x="24" y="68" width="4" height="4"/>
    <rect x="28" y="68" width="4" height="4"/>
    <rect x="32" y="68" width="4" height="4"/>
    <rect x="44" y="68" width="4" height="4"/>
    <rect x="60" y="68" width="4" height="4"/>
    <rect x="68" y="68" width="4" height="4"/>
    <rect x="76" y="68" width="4" height="4"/>
    <rect x="92" y="68" width="4" height="4"/>
    <rect x="96" y="68" width="4" height="4"/>
    <rect x="120" y="68" width="4" height="4"/>
    <rect x="124" y="68" width="4" height="4"/>
    <rect x="128" y="68" width="4" height="4"/>
    <rect x="132" y="68" width="4" height="4"/>
    <rect x="136" y="68" width="4" height="4"/>
    <rect x="148" y="68" width="4" height="4"/>
    <rect x="156" y="68" width="4" height="4"/>
    <rect x="160" y="68" width="4" height="4"/>
    <rect x="168" y="68" width="4" height="4"/>
    <rect x="172" y="68" width="4" height="4"/>
    <rect x="176" y="68" width="4" height="4"/>
    <rect x="184" y="68" width="4" height="4"/>
    <rect x="188" y="68" width="4" height="4"/>
    <rect x="36" y="72" width="4" height="4"/>
    <rect x="40" y="72" width="4" height="4"/>
    <rect x="52" y="72" width="4" height="4"/>
    <rect x="60" y="72" width="4" height="4"/>
    <rect x="80" y="72" width="4" height="4"/>
    <rect x="88" y="72" width="4" height="4"/>
    <rect x="96" y="72" width="4" height="4"/>
    <rect x="104" y="72" width="4" height="4"/>
    <rect x="120" y="72" width="4" height="4"/>
    <rect x="132" y="72" width="4" height="4"/>
    <rect x="136" y="72" width="4" height="4"/>
    <rect x="148" y="72" width="4" height="4"/>
    <rect x="168" y="72" width="4" height="4"/>
    <rect x="180" y="72" width="4" height="4"/>
    <rect x="188" y="72" width="4" height="4"/>
    <rect x="24" y="76" width="4" height="4"/>
    <rect x="36" y="76" width="4" height="4"/>
    <rect x="60" y="76" width="4" height="4"/>
    <rect x="68" y="76" width="4" height="4"/>
    <rect x="80" y="76" width="4" height="4"/>
    <rect x="84" y="76" width="4" height="4"/>
    <rect x="88" y="76" width="4" height="4"/>
    <rect x="92" y="76" width="4" height="4"/>
    <rect x="100" y="76" width="4" height="4"/>
    <rect x="104" y="76" width="4" height="4"/>
    <rect x="108" y="76" width="4" height="4"/>
    <rect x="116" y="76" width="4" height="4"/>
    <rect x="136" y="76" width="4" height="4"/>
    <rect x="140" y="76" width="4" height="4"/>
    <rect x="144" y="76" width="4" height="4"/>
    <rect x="148" y="76" width="4" height="4"/>
    <rect x="152" y="76" width="4" height="4"/>
    <rect x="160" y="76" width="4" height="4"/>
    <rect x="164" y="76" width="4" height="4"/>
    <rect x="168" y="76" width="4" height="4"/>
    <rect x="188" y="76" width="4" height="4"/>
    <rect x="192" y="76" width="4" height="4"/>
    <rect x="28" y="80" width="4" height="4"/>
    <rect x="36" y="80" width="4" height="4"/>
    <rect x="40" y="80" width="4" height="4"/>
    <rect x="56" y="80" width="4" height="4"/>
    <rect x="68" y="80" width="4" height="4"/>
    <rect x="72" y="80" width="4" height="4"/>
    <rect x="76" y="80" width="4" height="4"/>
    <rect x="84" y="80" width="4" height="4"/>
    <rect x="100" y="80" width="4" height="4"/>
    <rect x="108" y="80" width="4" height="4"/>
    <rect x="112" y="80" width="4" height="4"/>
    <rect x="120" y="80" width="4" height="4"/>
    <rect x="132" y="80" width="4" height="4"/>
    <rect x="136" y="80" width="4" height="4"/>
    <rect x="140" y="80" width="4" height="4"/>
    <rect x="144" y="80" width="4" height="4"/>
    <rect x="148" y="80" width="4" height="4"/>
    <rect x="164" y="80" width="4" height="4"/>
    <rect x="172" y="80" width="4" height="4"/>
    <rect x="180" y="80" width="4" height="4"/>
    <rect x="192" y="80" width="4" height="4"/>
    <rect x="16" y="84" width="4" height="4"/>
    <rect x="20" y="84" width="4" height="4"/>
    <rect x="24" y="84" width="4" height="4"/>
    <rect x="28" y="84" width="4" height="4"/>
    <rect x="44" y="84" width="4" height="4"/>
    <rect x="52" y="84" width="4" height="4"/>
    <rect x="72" y="84" width="4" height="4"/>
    <rect x="88" y="84" width="4" height="4"/>
    <rect x="100" y="84" width="4" height="4"/>
    <rect x="104" y="84" width="4" height="4"/>
    <rect x="112" y="84" width="4" height="4"/>
    <rect x="120" y="84" width="4" height="4"/>
    <rect x="124" y="84" width="4" height="4"/>
    <rect x="132" y="84" width="4" height="4"/>
    <rect x="136" y="84" width="4" height="4"/>
    <rect x="144" y="84" width="4" height="4"/>
    <rect x="148" y="84" width="4" height="4"/>
    <rect x="156" y="84" width="4" height="4"/>
    <rect x="160" y="84" width="4" height="4"/>
    <rect x="168" y="84" width="4" height="4"/>
    <rect x="172" y="84" width="4" height="4"/>
    <rect x="176" y="84" width="4" height="4"/>
    <rect x="180" y="84" width="4" height="4"/>
    <rect x="16" y="88" width="4" height="4"/>
    <rect x="24" y="88" width="4" height="4"/>
    <rect x="28" y="88" width="4" height="4"/>
    <rect x="32" y="88" width="4" height="4"/>
    <rect x="36" y="88" width="4" height="4"/>
    <rect x="40" y="88" width="4" height="4"/>
    <rect x="44" y="88" width="4" height="4"/>
    <rect x="56" y="88" width="4" height="4"/>
    <rect x="80" y="88" width="4" height="4"/>
    <rect x="84" y="88" width="4" height="4"/>
    <rect x="88" y="88" width="4" height="4"/>
    <rect x="100" y="88" width="4" height="4"/>
    <rect x="112" y="88" width="4" height="4"/>
    <rect x="116" y="88" width="4" height="4"/>
    <rect x="120" y="88" width="4" height="4"/>
    <rect x="128" y="88" width="4" height="4"/>
    <rect x="148" y="88" width="4" height="4"/>
    <rect x="168" y="88" width="4" height="4"/>
    <rect x="176" y="88" width="4" height="4"/>
    <rect x="188" y="88" width="4" height="4"/>
    <rect x="36" y="92" width="4" height="4"/>
    <rect x="44" y="92" width="4" height="4"/>
    <rect x="52" y="92" width="4" height="4"/>
    <rect x="56" y="92" width="4" height="4"/>
    <rect x="68" y="92" width="4" height="4"/>
    <rect x="72" y="92" width="4" height="4"/>
    <rect x="76" y="92" width="4" height="4"/>
    <rect x="80" y="92" width="4" height="4"/>
    <rect x="92" y="92" width="4" height="4"/>
    <rect x="96" y="92" width="4" height="4"/>
    <rect x="100" y="92" width="4" height="4"/>
    <rect x="104" y="92" width="4" height="4"/>
    <rect x="108" y="92" width="4" height="4"/>
    <rect x="112" y="92" width="4" height="4"/>
    <rect x="116" y="92" width="4" height="4"/>
    <rect x="124" y="92" width="4" height="4"/>
    <rect x="140" y="92" width="4" height="4"/>
    <rect x="144" y="92" width="4" height="4"/>
    <rect x="156" y="92" width="4" height="4"/>
    <rect x="160" y="92" width="4" height="4"/>
    <rect x="164" y="92" width="4" height="4"/>
    <rect x="168" y="92" width="4" height="4"/>
    <rect x="176" y="92" width="4" height="4"/>
    <rect x="16" y="96" width="4" height="4"/>
    <rect x="20" y="96" width="4" height="4"/>
    <rect x="24" y="96" width="4" height="4"/>
    <rect x="28" y="96" width="4" height="4"/>
    <rect x="32" y="96" width="4" height="4"/>
    <rect x="36" y="96" width="4" height="4"/>
    <rect x="40" y="96" width="4" height="4"/>
    <rect x="44" y="96" width="4" height="4"/>
    <rect x="48" y="96" width="4" height="4"/>
    <rect x="60" y="96" width="4" height="4"/>
    <rect x="64" y="96" width="4" height="4"/>
    <rect x="72" y="96" width="4" height="4"/>
    <rect x="76" y="96" width="4" height="4"/>
    <rect x="80" y="96" width="4" height="4"/>
    <rect x="84" y="96" width="4" height="4"/>
    <rect x="88" y="96" width="4" height="4"/>
    <rect x="92" y="96" width="4" height="4"/>
    <rect x="96" y="96" width="4" height="4"/>
    <rect x="100" y="96" width="4" height="4"/>
    <rect x="104" y="96" width="4" height="4"/>
    <rect x="108" y="96" width="4" height="4"/>
    <rect x="112" y="96" width="4" height="4"/>
    <rect x="124" y="96" width="4" height="4"/>
    <rect x="132" y="96" width="4" height="4"/>
    <rect x="136" y="96" width="4" height="4"/>
    <rect x="144" y="96" width="4" height="4"/>
    <rect x="148" y="96" width="4" height="4"/>
    <rect x="152" y="96" width="4" height="4"/>
    <rect x="160" y="96" width="4" height="4"/>
    <rect x="164" y="96" width="4" height="4"/>
    <rect x="168" y="96" width="4" height="4"/>
    <rect x="172" y="96" width="4" height="4"/>
    <rect x="176" y="96" width="4" height="4"/>
    <rect x="192" y="96" width="4" height="4"/>
    <rect x="20" y="100" width="4" height="4"/>
    <rect x="32" y="100" width="4" height="4"/>
    <rect x="48" y="100" width="4" height="4"/>
    <rect x="52" y="100" width="4" height="4"/>
    <rect x="68" y="100" width="4" height="4"/>
    <rect x="76" y="100" width="4" height="4"/>
    <rect x="84" y="100" width="4" height="4"/>
    <rect x="96" y="100" width="4" height="4"/>
    <rect x="112" y="100" width="4" height="4"/>
    <rect x="116" y="100" width="4" height="4"/>
    <rect x="120" y="100" width="4" height="4"/>
    <rect x="132" y="100" width="4" height="4"/>
    <rect x="136" y="100" width="4" height="4"/>
    <rect x="144" y="100" width="4" height="4"/>
    <rect x="148" y="100" width="4" height="4"/>
    <rect x="156" y="100" width="4" height="4"/>
    <rect x="160" y="100" width="4" height="4"/>
    <rect x="176" y="100" width="4" height="4"/>
    <rect x="184" y="100" width="4" height="4"/>
    <rect x="16" y="104" width="4" height="4"/>
    <rect x="20" y="104" width="4" height="4"/>
    <rect x="28" y="104" width="4" height="4"/>
    <rect x="32" y="104" width="4" height="4"/>
    <rect x="40" y="104" width="4" height="4"/>
    <rect x="48" y="104" width="4" height="4"/>
    <rect x="52" y="104" width="4" height="4"/>
    <rect x="68" y="104" width="4" height="4"/>
    <rect x="72" y="104" width="4" height="4"/>
    <rect x="76" y="104" width="4" height="4"/>
    <rect x="84" y="104" width="4" height="4"/>
    <rect x="92" y="104" width="4" height="4"/>
    <rect x="96" y="104" width="4" height="4"/>
    <rect x="104" y="104" width="4" height="4"/>
    <rect x="112" y="104" width="4" height="4"/>
    <rect x="140" y="104" width="4" height="4"/>
    <rect x="144" y="104" width="4" height="4"/>
    <rect x="148" y="104" width="4" height="4"/>
    <rect x="160" y="104" width="4" height="4"/>
    <rect x="168" y="104" width="4" height="4"/>
    <rect x="176" y="104" width="4" height="4"/>
    <rect x="184" y="104" width="4" height="4"/>
    <rect x="188" y="104" width="4" height="4"/>
    <rect x="24" y="108" width="4" height="4"/>
    <rect x="32" y="108" width="4" height="4"/>
    <rect x="48" y="108" width="4" height="4"/>
    <rect x="56" y="108" width="4" height="4"/>
    <rect x="72" y="108" width="4" height="4"/>
    <rect x="80" y="108" width="4" height="4"/>
    <rect x="92" y="108" width="4" height="4"/>
    <rect x="96" y="108" width="4" height="4"/>
    <rect x="112" y="108" width="4" height="4"/>
    <rect x="124" y="108" width="4" height="4"/>
    <rect x="136" y="108" width="4" height="4"/>
    <rect x="144" y="108" width="4" height="4"/>
    <rect x="148" y="108" width="4" height="4"/>
    <rect x="156" y="108" width="4" height="4"/>
    <rect x="160" y="108" width="4" height="4"/>
    <rect x="176" y="108" width="4" height="4"/>
    <rect x="180" y="108" width="4" height="4"/>
    <rect x="188" y="108" width="4" height="4"/>
    <rect x="20" y="112" width="4" height="4"/>
    <rect x="24" y="112" width="4" height="4"/>
    <rect x="32" y="112" width="4" height="4"/>
    <rect x="36" y="112" width="4" height="4"/>
    <rect x="40" y="112" width="4" height="4"/>
    <rect x="44" y="112" width="4" height="4"/>
    <rect x="48" y="112" width="4" height="4"/>
    <rect x="56" y="112" width="4" height="4"/>
    <rect x="60" y="112" width="4" height="4"/>
    <rect x="64" y="112" width="4" height="4"/>
    <rect x="88" y="112" width="4" height="4"/>
    <rect x="96" y="112" width="4" height="4"/>
    <rect x="100" y="112" width="4" height="4"/>
    <rect x="104" y="112" width="4" height="4"/>
    <rect x="108" y="112" width="4" height="4"/>
    <rect x="112" y="112" width="4" height="4"/>
    <rect x="124" y="112" width="4" height="4"/>
    <rect x="132" y="112" width="4" height="4"/>
    <rect x="144" y="112" width="4" height="4"/>
    <rect x="148" y="112" width="4" height="4"/>
    <rect x="160" y="112" width="4" height="4"/>
    <rect x="164" y="112" width="4" height="4"/>
    <rect x="168" y="112" width="4" height="4"/>
    <rect x="172" y="112" width="4" height="4"/>
    <rect x="176" y="112" width="4" height="4"/>
    <rect x="180" y="112" width="4" height="4"/>
    <rect x="16" y="116" width="4" height="4"/>
    <rect x="24" y="116" width="4" height="4"/>
    <rect x="32" y="116" width="4" height="4"/>
    <rect x="48" y="116" width="4" height="4"/>
    <rect x="56" y="116" width="4" height="4"/>
    <rect x="64" y="116" width="4" height="4"/>
    <rect x="68" y="116" width="4" height="4"/>
    <rect x="72" y="116" width="4" height="4"/>
    <rect x="76" y="116" width="4" height="4"/>
    <rect x="80" y="116" width="4" height="4"/>
    <rect x="84" y="116" width="4" height="4"/>
    <rect x="88" y="116" width="4" height="4"/>
    <rect x="92" y="116" width="4" height="4"/>
    <rect x="104" y="116" width="4" height="4"/>
    <rect x="108" y="116" width="4" height="4"/>
    <rect x="120" y="116" width="4" height="4"/>
    <rect x="124" y="116" width="4" height="4"/>
    <rect x="128" y="116" width="4" height="4"/>
    <rect x="132" y="116" width="4" height="4"/>
    <rect x="136" y="116" width="4" height="4"/>
    <rect x="144" y="116" width="4" height="4"/>
    <rect x="168" y="116" width="4" height="4"/>
    <rect x="172" y="116" width="4" height="4"/>
    <rect x="180" y="116" width="4" height="4"/>
    <rect x="184" y="116" width="4" height="4"/>
    <rect x="20" y="120" width="4" height="4"/>
    <rect x="28" y="120" width="4" height="4"/>
    <rect x="36" y="120" width="4" height="4"/>
    <rect x="40" y="120" width="4" height="4"/>
    <rect x="56" y="120" width="4" height="4"/>
    <rect x="76" y="120" width="4" height="4"/>
    <rect x="96" y="120" width="4" height="4"/>
    <rect x="112" y="120" width="4" height="4"/>
    <rect x="120" y="120" width="4" height="4"/>
    <rect x="124" y="120" width="4" height="4"/>
    <rect x="128" y="120" width="4" height="4"/>
    <rect x="136" y="120" width="4" height="4"/>
    <rect x="140" y="120" width="4" height="4"/>
    <rect x="144" y="120" width="4" height="4"/>
    <rect x="148" y="120" width="4" height="4"/>
    <rect x="156" y="120" width="4" height="4"/>
    <rect x="164" y="120" width="4" height="4"/>
    <rect x="176" y="120" width="4" height="4"/>
    <rect x="188" y="120" width="4" height="4"/>
    <rect x="16" y="124" width="4" height="4"/>
    <rect x="20" y="124" width="4" height="4"/>
    <rect x="24" y="124" width="4" height="4"/>
    <rect x="32" y="124" width="4" height="4"/>
    <rect x="36" y="124" width="4" height="4"/>
    <rect x="44" y="124" width="4" height="4"/>
    <rect x="52" y="124" width="4" height="4"/>
    <rect x="60" y="124" width="4" height="4"/>
    <rect x="68" y="124" width="4" height="4"/>
    <rect x="96" y="124" width="4" height="4"/>
    <rect x="100" y="124" width="4" height="4"/>
    <rect x="116" y="124" width="4" height="4"/>
    <rect x="120" y="124" width="4" height="4"/>
    <rect x="124" y="124" width="4" height="4"/>
    <rect x="136" y="124" width="4" height="4"/>
    <rect x="140" y="124" width="4" height="4"/>
    <rect x="144" y="124" width="4" height="4"/>
    <rect x="160" y="124" width="4" height="4"/>
    <rect x="168" y="124" width="4" height="4"/>
    <rect x="172" y="124" width="4" height="4"/>
    <rect x="16" y="128" width="4" height="4"/>
    <rect x="20" y="128" width="4" height="4"/>
    <rect x="28" y="128" width="4" height="4"/>
    <rect x="40" y="128" width="4" height="4"/>
    <rect x="48" y="128" width="4" height="4"/>
    <rect x="52" y="128" width="4" height="4"/>
    <rect x="72" y="128" width="4" height="4"/>
    <rect x="80" y="128" width="4" height="4"/>
    <rect x="84" y="128" width="4" height="4"/>
    <rect x="88" y="128" width="4" height="4"/>
    <rect x="100" y="128" width="4" height="4"/>
    <rect x="104" y="128" width="4" height="4"/>
    <rect x="108" y="128" width="4" height="4"/>
    <rect x="112" y="128" width="4" height="4"/>
    <rect x="116" y="128" width="4" height="4"/>
    <rect x="124" y="128" width="4" height="4"/>
    <rect x="132" y="128" width="4" height="4"/>
    <rect x="140" y="128" width="4" height="4"/>
    <rect x="144" y="128" width="4" height="4"/>
    <rect x="152" y="128" width="4" height="4"/>
    <rect x="160" y="128" width="4" height="4"/>
    <rect x="164" y="128" width="4" height="4"/>
    <rect x="168" y="128" width="4" height="4"/>
    <rect x="172" y="128" width="4" height="4"/>
    <rect x="176" y="128" width="4" height="4"/>
    <rect x="188" y="128" width="4" height="4"/>
    <rect x="20" y="132" width="4" height="4"/>
    <rect x="24" y="132" width="4" height="4"/>
    <rect x="44" y="132" width="4" height="4"/>
    <rect x="60" y="132" width="4" height="4"/>
    <rect x="64" y="132" width="4" height="4"/>
    <rect x="68" y="132" width="4" height="4"/>
    <rect x="92" y="132" width="4" height="4"/>
    <rect x="96" y="132" width="4" height="4"/>
    <rect x="112" y="132" width="4" height="4"/>
    <rect x="124" y="132" width="4" height="4"/>
    <rect x="128" y="132" width="4" height="4"/>
    <rect x="136" y="132" width="4" height="4"/>
    <rect x="140" y="132" width="4" height="4"/>
    <rect x="144" y="132" width="4" height="4"/>
    <rect x="148" y="132" width="4" height="4"/>
    <rect x="156" y="132" width="4" height="4"/>
    <rect x="160" y="132" width="4" height="4"/>
    <rect x="168" y="132" width="4" height="4"/>
    <rect x="172" y="132" width="4" height="4"/>
    <rect x="32" y="136" width="4" height="4"/>
    <rect x="40" y="136" width="4" height="4"/>
    <rect x="44" y="136" width="4" height="4"/>
    <rect x="56" y="136" width="4" height="4"/>
    <rect x="76" y="136" width="4" height="4"/>
    <rect x="88" y="136" width="4" height="4"/>
    <rect x="96" y="136" width="4" height="4"/>
    <rect x="104" y="136" width="4" height="4"/>
    <rect x="124" y="136" width="4" height="4"/>
    <rect x="128" y="136" width="4" height="4"/>
    <rect x="136" y="136" width="4" height="4"/>
    <rect x="140" y="136" width="4" height="4"/>
    <rect x="156" y="136" width="4" height="4"/>
    <rect x="160" y="136" width="4" height="4"/>
    <rect x="164" y="136" width="4" height="4"/>
    <rect x="180" y="136" width="4" height="4"/>
    <rect x="184" y="136" width="4" height="4"/>
    <rect x="16" y="140" width="4" height="4"/>
    <rect x="44" y="140" width="4" height="4"/>
    <rect x="60" y="140" width="4" height="4"/>
    <rect x="64" y="140" width="4" height="4"/>
    <rect x="68" y="140" width="4" height="4"/>
    <rect x="76" y="140" width="4" height="4"/>
    <rect x="80" y="140" width="4" height="4"/>
    <rect x="84" y="140" width="4" height="4"/>
    <rect x="88" y="140" width="4" height="4"/>
    <rect x="100" y="140" width="4" height="4"/>
    <rect x="108" y="140" width="4" height="4"/>
    <rect x="116" y="140" width="4" height="4"/>
    <rect x="124" y="140" width="4" height="4"/>
    <rect x="132" y="140" width="4" height="4"/>
    <rect x="144" y="140" width="4" height="4"/>
    <rect x="160" y="140" width="4" height="4"/>
    <rect x="164" y="140" width="4" height="4"/>
    <rect x="168" y="140" width="4" height="4"/>
    <rect x="176" y="140" width="4" height="4"/>
    <rect x="180" y="140" width="4" height="4"/>
    <rect x="192" y="140" width="4" height="4"/>
    <rect x="24" y="144" width="4" height="4"/>
    <rect x="32" y="144" width="4" height="4"/>
    <rect x="40" y="144" width="4" height="4"/>
    <rect x="48" y="144" width="4" height="4"/>
    <rect x="52" y="144" width="4" height="4"/>
    <rect x="64" y="144" width="4" height="4"/>
    <rect x="68" y="144" width="4" height="4"/>
    <rect x="72" y="144" width="4" height="4"/>
    <rect x="76" y="144" width="4" height="4"/>
    <rect x="84" y="144" width="4" height="4"/>
    <rect x="92" y="144" width="4" height="4"/>
    <rect x="96" y="144" width="4" height="4"/>
    <rect x="100" y="144" width="4" height="4"/>
    <rect x="108" y="144" width="4" height="4"/>
    <rect x="112" y="144" width="4" height="4"/>
    <rect x="120" y="144" width="4" height="4"/>
    <rect x="124" y="144" width="4" height="4"/>
    <rect x="132" y="144" width="4" height="4"/>
    <rect x="144" y="144" width="4" height="4"/>
    <rect x="148" y="144" width="4" height="4"/>
    <rect x="152" y="144" width="4" height="4"/>
    <rect x="164" y="144" width="4" height="4"/>
    <rect x="168" y="144" width="4" height="4"/>
    <rect x="176" y="144" width="4" height="4"/>
    <rect x="24" y="148" width="4" height="4"/>
    <rect x="60" y="148" width="4" height="4"/>
    <rect x="72" y="148" width="4" height="4"/>
    <rect x="88" y="148" width="4" height="4"/>
    <rect x="100" y="148" width="4" height="4"/>
    <rect x="104" y="148" width="4" height="4"/>
    <rect x="112" y="148" width="4" height="4"/>
    <rect x="120" y="148" width="4" height="4"/>
    <rect x="128" y="148" width="4" height="4"/>
    <rect x="132" y="148" width="4" height="4"/>
    <rect x="136" y="148" width="4" height="4"/>
    <rect x="148" y="148" width="4" height="4"/>
    <rect x="168" y="148" width="4" height="4"/>
    <rect x="172" y="148" width="4" height="4"/>
    <rect x="180" y="148" width="4" height="4"/>
    <rect x="188" y="148" width="4" height="4"/>
    <rect x="32" y="152" width="4" height="4"/>
    <rect x="40" y="152" width="4" height="4"/>
    <rect x="48" y="152" width="4" height="4"/>
    <rect x="52" y="152" width="4" height="4"/>
    <rect x="60" y="152" width="4" height="4"/>
    <rect x="64" y="152" width="4" height="4"/>
    <rect x="68" y="152" width="4" height="4"/>
    <rect x="72" y="152" width="4" height="4"/>
    <rect x="80" y="152" width="4" height="4"/>
    <rect x="88" y="152" width="4" height="4"/>
    <rect x="100" y="152" width="4" height="4"/>
    <rect x="104" y="152" width="4" height="4"/>
    <rect x="108" y="152" width="4" height="4"/>
    <rect x="112" y="152" width="4" height="4"/>
    <rect x="120" y="152" width="4" height="4"/>
    <rect x="124" y="152" width="4" height="4"/>
    <rect x="128" y="152" width="4" height="4"/>
    <rect x="132" y="152" width="4" height="4"/>
    <rect x="136" y="152" width="4" height="4"/>
    <rect x="140" y="152" width="4" height="4"/>
    <rect x="144" y="152" width="4" height="4"/>
    <rect x="156" y="152" width="4" height="4"/>
    <rect x="160" y="152" width="4" height="4"/>
    <rect x="176" y="152" width="4" height="4"/>
    <rect x="180" y="152" width="4" height="4"/>
    <rect x="184" y="152" width="4" height="4"/>
    <rect x="188" y="152" width="4" height="4"/>
    <rect x="20" y="156" width="4" height="4"/>
    <rect x="24" y="156" width="4" height="4"/>
    <rect x="28" y="156" width="4" height="4"/>
    <rect x="32" y="156" width="4" height="4"/>
    <rect x="48" y="156" width="4" height="4"/>
    <rect x="64" y="156" width="4" height="4"/>
    <rect x="68" y="156" width="4" height="4"/>
    <rect x="76" y="156" width="4" height="4"/>
    <rect x="80" y="156" width="4" height="4"/>
    <rect x="96" y="156" width="4" height="4"/>
    <rect x="104" y="156" width="4" height="4"/>
    <rect x="124" y="156" width="4" height="4"/>
    <rect x="132" y="156" width="4" height="4"/>
    <rect x="140" y="156" width="4" height="4"/>
    <rect x="144" y="156" width="4" height="4"/>
    <rect x="152" y="156" width="4" height="4"/>
    <rect x="160" y="156" width="4" height="4"/>
    <rect x="168" y="156" width="4" height="4"/>
    <rect x="172" y="156" width="4" height="4"/>
    <rect x="176" y="156" width="4" height="4"/>
    <rect x="16" y="160" width="4" height="4"/>
    <rect x="28" y="160" width="4" height="4"/>
    <rect x="32" y="160" width="4" height="4"/>
    <rect x="40" y="160" width="4" height="4"/>
    <rect x="48" y="160" width="4" height="4"/>
    <rect x="72" y="160" width="4" height="4"/>
    <rect x="76" y="160" width="4" height="4"/>
    <rect x="80" y="160" width="4" height="4"/>
    <rect x="88" y="160" width="4" height="4"/>
    <rect x="92" y="160" width="4" height="4"/>
    <rect x="96" y="160" width="4" height="4"/>
    <rect x="100" y="160" width="4" height="4"/>
    <rect x="104" y="160" width="4" height="4"/>
    <rect x="108" y="160" width="4" height="4"/>
    <rect x="112" y="160" width="4" height="4"/>
    <rect x="120" y="160" width="4" height="4"/>
    <rect x="124" y="160" width="4" height="4"/>
    <rect x="132" y="160" width="4" height="4"/>
    <rect x="136" y="160" width="4" height="4"/>
    <rect x="144" y="160" width="4" height="4"/>
    <rect x="160" y="160" width="4" height="4"/>
    <rect x="164" y="160" width="4" height="4"/>
    <rect x="168" y="160" width="4" height="4"/>
    <rect x="172" y="160" width="4" height="4"/>
    <rect x="176" y="160" width="4" height="4"/>
    <rect x="180" y="160" width="4" height="4"/>
    <rect x="184" y="160" width="4" height="4"/>
    <rect x="188" y="160" width="4" height="4"/>
    <rect x="56" y="164" width="4" height="4"/>
    <rect x="60" y="164" width="4" height="4"/>
    <rect x="64" y="164" width="4" height="4"/>
    <rect x="76" y="164" width="4" height="4"/>
    <rect x="84" y="164" width="4" height="4"/>
    <rect x="92" y="164" width="4" height="4"/>
    <rect x="96" y="164" width="4" height="4"/>
    <rect x="112" y="164" width="4" height="4"/>
    <rect x="116" y="164" width="4" height="4"/>
    <rect x="120" y="164" width="4" height="4"/>
    <rect x="124" y="164" width="4" height="4"/>
    <rect x="128" y="164" width="4" height="4"/>
    <rect x="136" y="164" width="4" height="4"/>
    <rect x="140" y="164" width="4" height="4"/>
    <rect x="148" y="164" width="4" height="4"/>
    <rect x="160" y="164" width="4" height="4"/>
    <rect x="176" y="164" width="4" height="4"/>
    <rect x="180" y="164" width="4" height="4"/>
    <rect x="188" y="164" width="4" height="4"/>
    <rect x="16" y="168" width="4" height="4"/>
    <rect x="20" y="168" width="4" height="4"/>
    <rect x="24" y="168" width="4" height="4"/>
    <rect x="28" y="168" width="4" height="4"/>
    <rect x="32" y="168" width="4" height="4"/>
    <rect x="36" y="168" width="4" height="4"/>
    <rect x="40" y="168" width="4" height="4"/>
    <rect x="52" y="168" width="4" height="4"/>
    <rect x="56" y="168" width="4" height="4"/>
    <rect x="68" y="168" width="4" height="4"/>
    <rect x="72" y="168" width="4" height="4"/>
    <rect x="80" y="168" width="4" height="4"/>
    <rect x="84" y="168" width="4" height="4"/>
    <rect x="96" y="168" width="4" height="4"/>
    <rect x="104" y="168" width="4" height="4"/>
    <rect x="112" y="168" width="4" height="4"/>
    <rect x="116" y="168" width="4" height="4"/>
    <rect x="136" y="168" width="4" height="4"/>
    <rect x="140" y="168" width="4" height="4"/>
    <rect x="144" y="168" width="4" height="4"/>
    <rect x="148" y="168" width="4" height="4"/>
    <rect x="156" y="168" width="4" height="4"/>
    <rect x="160" y="168" width="4" height="4"/>
    <rect x="168" y="168" width="4" height="4"/>
    <rect x="176" y="168" width="4" height="4"/>
    <rect x="184" y="168" width="4" height="4"/>
    <rect x="188" y="168" width="4" height="4"/>
    <rect x="16" y="172" width="4" height="4"/>
    <rect x="40" y="172" width="4" height="4"/>
    <rect x="48" y="172" width="4" height="4"/>
    <rect x="52" y="172" width="4" height="4"/>
    <rect x="60" y="172" width="4" height="4"/>
    <rect x="72" y="172" width="4" height="4"/>
    <rect x="76" y="172" width="4" height="4"/>
    <rect x="80" y="172" width="4" height="4"/>
    <rect x="92" y="172" width="4" height="4"/>
    <rect x="96" y="172" width="4" height="4"/>
    <rect x="112" y="172" width="4" height="4"/>
    <rect x="116" y="172" width="4" height="4"/>
    <rect x="120" y="172" width="4" height="4"/>
    <rect x="136" y="172" width="4" height="4"/>
    <rect x="144" y="172" width="4" height="4"/>
    <rect x="148" y="172" width="4" height="4"/>
    <rect x="152" y="172" width="4" height="4"/>
    <rect x="160" y="172" width="4" height="4"/>
    <rect x="176" y="172" width="4" height="4"/>
    <rect x="180" y="172" width="4" height="4"/>
    <rect x="188" y="172" width="4" height="4"/>
    <rect x="192" y="172" width="4" height="4"/>
    <rect x="16" y="176" width="4" height="4"/>
    <rect x="24" y="176" width="4" height="4"/>
    <rect x="28" y="176" width="4" height="4"/>
    <rect x="32" y="176" width="4" height="4"/>
    <rect x="40" y="176" width="4" height="4"/>
    <rect x="60" y="176" width="4" height="4"/>
    <rect x="64" y="176" width="4" height="4"/>
    <rect x="88" y="176" width="4" height="4"/>
    <rect x="96" y="176" width="4" height="4"/>
    <rect x="100" y="176" width="4" height="4"/>
    <rect x="104" y="176" width="4" height="4"/>
    <rect x="108" y="176" width="4" height="4"/>
    <rect x="112" y="176" width="4" height="4"/>
    <rect x="116" y="176" width="4" height="4"/>
    <rect x="124" y="176" width="4" height="4"/>
    <rect x="132" y="176" width="4" height="4"/>
    <rect x="144" y="176" width="4" height="4"/>
    <rect x="160" y="176" width="4" height="4"/>
    <rect x="164" y="176" width="4" height="4"/>
    <rect x="168" y="176" width="4" height="4"/>
    <rect x="172" y="176" width="4" height="4"/>
    <rect x="176" y="176" width="4" height="4"/>
    <rect x="192" y="176" width="4" height="4"/>
    <rect x="16" y="180" width="4" height="4"/>
    <rect x="24" y="180" width="4" height="4"/>
    <rect x="28" y="180" width="4" height="4"/>
    <rect x="32" y="180" width="4" height="4"/>
    <rect x="40" y="180" width="4" height="4"/>
    <rect x="48" y="180" width="4" height="4"/>
    <rect x="56" y="180" width="4" height="4"/>
    <rect x="64" y="180" width="4" height="4"/>
    <rect x="68" y="180" width="4" height="4"/>
    <rect x="72" y="180" width="4" height="4"/>
    <rect x="76" y="180" width="4" height="4"/>
    <rect x="80" y="180" width="4" height="4"/>
    <rect x="84" y="180" width="4" height="4"/>
    <rect x="88" y="180" width="4" height="4"/>
    <rect x="92" y="180" width="4" height="4"/>
    <rect x="112" y="180" width="4" height="4"/>
    <rect x="120" y="180" width="4" height="4"/>
    <rect x="124" y="180" width="4" height="4"/>
    <rect x="132" y="180" width="4" height="4"/>
    <rect x="136" y="180" width="4" height="4"/>
    <rect x="156" y="180" width="4" height="4"/>
    <rect x="164" y="180" width="4" height="4"/>
    <rect x="168" y="180" width="4" height="4"/>
    <rect x="172" y="180" width="4" height="4"/>
    <rect x="176" y="180" width="4" height="4"/>
    <rect x="180" y="180" width="4" height="4"/>
    <rect x="16" y="184" width="4" height="4"/>
    <rect x="24" y="184" width="4" height="4"/>
    <rect x="28" y="184" width="4" height="4"/>
    <rect x="32" y="184" width="4" height="4"/>
    <rect x="40" y="184" width="4" height="4"/>
    <rect x="48" y="184" width="4" height="4"/>
    <rect x="76" y="184" width="4" height="4"/>
    <rect x="88" y="184" width="4" height="4"/>
    <rect x="92" y="184" width="4" height="4"/>
    <rect x="96" y="184" width="4" height="4"/>
    <rect x="104" y="184" width="4" height="4"/>
    <rect x="116" y="184" width="4" height="4"/>
    <rect x="120" y="184" width="4" height="4"/>
    <rect x="128" y="184" width="4" height="4"/>
    <rect x="136" y="184" width="4" height="4"/>
    <rect x="140" y="184" width="4" height="4"/>
    <rect x="144" y="184" width="4" height="4"/>
    <rect x="148" y="184" width="4" height="4"/>
    <rect x="164" y="184" width="4" height="4"/>
    <rect x="168" y="184" width="4" height="4"/>
    <rect x="176" y="184" width="4" height="4"/>
    <rect x="184" y="184" width="4" height="4"/>
    <rect x="188" y="184" width="4" height="4"/>
    <rect x="16" y="188" width="4" height="4"/>
    <rect x="40" y="188" width="4" height="4"/>
    <rect x="48" y="188" width="4" height="4"/>
    <rect x="52" y="188" width="4" height="4"/>
    <rect x="56" y="188" width="4" height="4"/>
    <rect x="60" y="188" width="4" height="4"/>
    <rect x="92" y="188" width="4" height="4"/>
    <rect x="96" y="188" width="4" height="4"/>
    <rect x="104" y="188" width="4" height="4"/>
    <rect x="108" y="188" width="4" height="4"/>
    <rect x="116" y="188" width="4" height="4"/>
    <rect x="120" y="188" width="4" height="4"/>
    <rect x="128" y="188" width="4" height="4"/>
    <rect x="132" y="188" width="4" height="4"/>
    <rect x="144" y="188" width="4" height="4"/>
    <rect x="152" y="188" width="4" height="4"/>
    <rect x="156" y="188" width="4" height="4"/>
    <rect x="160" y="188" width="4" height="4"/>
    <rect x="164" y="188" width="4" height="4"/>
    <rect x="16" y="192" width="4" height="4"/>
    <rect x="20" y="192" width="4" height="4"/>
    <rect x="24" y="192" width="4" height="4"/>
    <rect x="28" y="192" width="4" height="4"/>
    <rect x="32" y="192" width="4" height="4"/>
    <rect x="36" y="192" width="4" height="4"/>
    <rect x="40" y="192" width="4" height="4"/>
    <rect x="48" y="192" width="4" height="4"/>
    <rect x="52" y="192" width="4" height="4"/>
    <rect x="56" y="192" width="4" height="4"/>
    <rect x="72" y="192" width="4" height="4"/>
    <rect x="76" y="192" width="4" height="4"/>
    <rect x="80" y="192" width="4" height="4"/>
    <rect x="84" y="192" width="4" height="4"/>
    <rect x="88" y="192" width="4" height="4"/>
    <rect x="96" y="192" width="4" height="4"/>
    <rect x="100" y="192" width="4" height="4"/>
    <rect x="108" y="192" width="4" height="4"/>
    <rect x="116" y="192" width="4" height="4"/>
    <rect x="124" y="192" width="4" height="4"/>
    <rect x="132" y="192" width="4" height="4"/>
    <rect x="144" y="192" width="4" height="4"/>
    <rect x="148" y="192" width="4" height="4"/>
    <rect x="156" y="192" width="4" height="4"/>
    <rect x="160" y="192" width="4" height="4"/>
    <rect x="172" y="192" width="4" height="4"/>
    <rect x="176" y="192" width="4" height="4"/>
    <rect x="192" y="192" width="4" height="4"/>
  </g>
</svg>
